# xmcd
#
# Track frame offsets: 
#        150
#        14996
#        23626
#        38859
#        49244
#        61123
#        76323
#        87545
#        98386
#        114904
#
# Disc length: 1782 seconds
#
# Revision: 0
# Processed by: cddbd v1.5.1PL0 Copyright (c) Steve Scherf et al.
# Submitted via: ExactAudioCopy v0.95a5
#
DISCID=7306f40a
DTITLE=Bill Bradley - Stories About Everything
DYEAR=1900
DGENRE=Bluegrass
TTITLE0=The Ballad Of The Old Man's Will
TTITLE1=Goin' Fishin'
TTITLE2=Yesterday's Roses
TTITLE3=The South Has Risen
TTITLE4=It's My Old Kentucky Home
TTITLE5=Me And The Skunk
TTITLE6=I Wanna Be Home Again
TTITLE7=The Lord's Own Bell
TTITLE8=I Saw The King
TTITLE9=Little Joe The Wrangler (The Story)
EXTD=
EXTT0=
EXTT1=
EXTT2=
EXTT3=
EXTT4=
EXTT5=
EXTT6=
EXTT7=
EXTT8=
EXTT9=
PLAYORDER=
